<svg xmlns="http://www.w3.org/2000/svg" viewBox="0 0 48 48" fill="none">
  <defs>
    <linearGradient id="bg" x1="24" y1="0" x2="24" y2="48" gradientUnits="userSpaceOnUse">
      <stop offset="0%" stop-color="#233c67"/>
      <stop offset="100%" stop-color="#1a3050"/>
    </linearGradient>
    <linearGradient id="g" x1="24" y1="10" x2="24" y2="46" gradientUnits="userSpaceOnUse">
      <stop offset="0%" stop-color="#dbb840"/>
      <stop offset="100%" stop-color="#b8901c"/>
    </linearGradient>
  </defs>
  <rect width="48" height="48" rx="11" fill="url(#bg)"/>
  <rect width="48" height="22" rx="11" fill="rgba(255,255,255,0.04)"/>
  <path d="M10,12 L38,12 L38,30 Q38,42 24,46 Q10,42 10,30 Z" fill="rgba(201,162,39,0.14)"/>
  <path d="M10,12 L38,12 L38,30 Q38,42 24,46 Q10,42 10,30 Z" stroke="url(#g)" stroke-width="1.5" stroke-linejoin="round"/>
  <rect x="13" y="20" width="5" height="17" rx="1.2" fill="url(#g)" opacity="0.68"/>
  <rect x="21.5" y="15" width="5" height="22" rx="1.2" fill="url(#g)"/>
  <rect x="30" y="20" width="5" height="17" rx="1.2" fill="url(#g)" opacity="0.68"/>
  <rect x="13" y="37.5" width="22" height="1.8" rx="0.9" fill="url(#g)" opacity="0.9"/>
</svg>
